<svg xmlns="http://www.w3.org/2000/svg" viewBox="0 0 128 128" role="img" aria-label="Avatar">
  <defs>
    <style>
      .skin{fill:#f4c7ab}
      .hair{fill:#8c4a32}
      .glasses{fill:#222}
    </style>
  </defs>
  <circle cx="64" cy="64" r="62" fill="#fff" stroke="#eee"/>
  <path class="hair" d="M24 40c8-16 28-22 44-18 10 2 18 8 22 16-6-2-14-1-20 2-10 6-24 6-36 0-4-2-8 0-10 0z"/>
  <circle class="skin" cx="64" cy="72" r="28"/>
  <rect class="glasses" x="38" y="58" width="20" height="12" rx="6"/>
  <rect class="glasses" x="70" y="58" width="20" height="12" rx="6"/>
  <rect class="glasses" x="58" y="62" width="12" height="4"/>
  <path class="hair" d="M40 96c10 8 38 8 48 0-6 12-42 12-48 0z"/>
</svg>